HIERARCHY
ROOT root
{
	OFFSET 0.000000 0.000000 0.000000
	CHANNELS 6 Xposition Yposition Zposition Zrotation Yrotation Xrotation
	JOINT lhip
	{
		OFFSET 0.058581 -0.082280 -0.017664
		CHANNELS 3 Zrotation Yrotation Xrotation
		JOINT lknee
		{
			OFFSET 0.043451 -0.386469 0.008037
			CHANNELS 3 Zrotation Yrotation Xrotation
			JOINT lankle
			{
				OFFSET -0.014790 -0.426874 -0.037428
				CHANNELS 3 Zrotation Yrotation Xrotation
				JOINT ltoe
				{
					OFFSET 0.041054 -0.060286 0.122042
					CHANNELS 3 Zrotation Yrotation Xrotation
					End Site
					{
						OFFSET 0.000000 0.000000 0.000000
					}
				}
			}
		}
	}
	JOINT rhip
	{
		OFFSET -0.060310 -0.090513 -0.013543
		CHANNELS 3 Zrotation Yrotation Xrotation
		JOINT rknee
		{
			OFFSET -0.043257 -0.383688 -0.004843
			CHANNELS 3 Zrotation Yrotation Xrotation
			JOINT rankle
			{
				OFFSET 0.019056 -0.420046 -0.034562
				CHANNELS 3 Zrotation Yrotation Xrotation
				JOINT rtoe
				{
					OFFSET -0.034840 -0.062106 0.130323
					CHANNELS 3 Zrotation Yrotation Xrotation
					End Site
					{
						OFFSET 0.000000 0.000000 0.000000
					}
				}
			}
		}
	}
	JOINT lowerback
	{
		OFFSET 0.004439 0.124404 -0.038385
		CHANNELS 3 Zrotation Yrotation Xrotation
		JOINT upperback
		{
			OFFSET 0.004488 0.137956 0.026820
			CHANNELS 3 Zrotation Yrotation Xrotation
			JOINT chest
			{
				OFFSET -0.002265 0.056032 0.002855
				CHANNELS 3 Zrotation Yrotation Xrotation
				JOINT lowerneck
				{
					OFFSET -0.013390 0.211636 -0.033468
					CHANNELS 3 Zrotation Yrotation Xrotation
					JOINT upperneck
					{
						OFFSET 0.010113 0.088937 0.050410
						CHANNELS 3 Zrotation Yrotation Xrotation
						End Site
						{
							OFFSET 0.000000 0.000000 0.000000
						}
					}
				}
				JOINT lclavicle
				{
					OFFSET 0.071702 0.114000 -0.018898
					CHANNELS 3 Zrotation Yrotation Xrotation
					JOINT lshoulder
					{
						OFFSET 0.122921 0.045205 -0.019046
						CHANNELS 3 Zrotation Yrotation Xrotation
						JOINT lelbow
						{
							OFFSET 0.255332 -0.015649 -0.022946
							CHANNELS 3 Zrotation Yrotation Xrotation
							JOINT lwrist
							{
								OFFSET 0.265709 0.012698 -0.007375
								CHANNELS 3 Zrotation Yrotation Xrotation
								End Site
								{
									OFFSET 0.000000 0.000000 0.000000
								}
							}
						}
					}
				}
				JOINT rclavicle
				{
					OFFSET -0.082954 0.112472 -0.023707
					CHANNELS 3 Zrotation Yrotation Xrotation
					JOINT rshoulder
					{
						OFFSET -0.113228 0.046853 -0.008472
						CHANNELS 3 Zrotation Yrotation Xrotation
						JOINT relbow
						{
							OFFSET -0.260127 -0.014369 -0.031269
							CHANNELS 3 Zrotation Yrotation Xrotation
							JOINT rwrist
							{
								OFFSET -0.269108 0.006794 -0.006027
								CHANNELS 3 Zrotation Yrotation Xrotation
								End Site
								{
									OFFSET 0.000000 0.000000 0.000000
								}
							}
						}
					}
				}
			}
		}
	}
}
MOTION
Frames: 7
Frame Time: 0.033333
0.470008 0.168351 1.013551 65.517100 7.654785 85.697323 11.293188 10.215594 19.453549 -1.031977 0.961850 -4.724299 -3.116680 20.912977 -9.964773 0.000000 -0.000000 0.000000 -1.853055 -1.512580 7.899218 1.610285 13.708188 0.257400 10.753228 -2.327839 -4.253980 0.000000 -0.000000 0.000000 -7.195823 -2.355560 -23.891435 3.953893 -3.556698 8.832403 -0.152287 1.433457 2.556776 -1.735068 -5.724078 16.206092 13.294950 -16.140534 -30.005445 15.109840 13.946493 -15.500932 0.983057 -25.372154 -22.476724 23.812801 -22.997132 -49.999223 7.022403 -16.477394 -25.291128 -14.416286 -10.399142 -7.307179 14.252780 5.472376 -23.750696 -37.207495 20.968200 -60.429555 -11.094998 8.337145 -43.912222 
0.467516 0.167184 1.013456 64.913280 7.668827 85.714146 11.376757 10.312408 19.390428 -1.113590 1.315043 -4.716223 -3.184691 21.038940 -9.930399 0.000000 -0.000000 0.000000 -1.750131 -1.377897 7.712398 1.610821 13.823211 0.076769 10.755865 -2.114588 -4.168352 0.000000 -0.000000 0.000000 -7.175062 -2.365292 -23.863643 4.012707 -3.578623 8.756286 -0.103954 1.493664 2.646012 -1.607781 -4.567632 16.590178 12.964910 -15.135721 -29.609229 15.090704 14.024893 -15.464407 0.907350 -25.222239 -22.509093 23.857586 -23.049393 -50.058644 7.185671 -16.476354 -25.759619 -14.274406 -10.508861 -7.239570 14.262150 5.613203 -23.837708 -37.013925 20.860280 -60.290113 -10.949376 8.268464 -43.639525 
0.465399 0.166101 1.013402 64.515767 7.640310 85.808986 11.415496 10.404642 19.204181 -1.183155 1.508569 -4.618511 -3.242180 21.086873 -9.966591 0.000000 -0.000000 0.000000 -1.726597 -1.382129 7.494915 1.680250 13.820307 -0.073338 10.724776 -1.926702 -4.155750 0.000000 -0.000000 0.000000 -7.133660 -2.335226 -23.790275 3.995059 -3.565687 8.424442 -0.124812 1.499012 2.725380 -1.321920 -2.718238 16.985215 12.413526 -13.526366 -28.584093 15.097270 13.972362 -15.325478 0.955987 -25.126742 -22.596472 23.781798 -22.869926 -50.018616 7.203178 -16.519921 -25.989226 -14.165297 -10.710848 -7.038517 14.340534 5.623807 -23.820314 -36.808238 20.889482 -60.051998 -10.777759 8.315869 -43.298115 
0.463034 0.165138 1.013540 64.267954 7.617565 85.835955 11.524512 10.439520 18.947534 -1.256303 1.553036 -4.305840 -3.481521 21.073505 -10.089835 0.000000 -0.000000 0.000000 -1.613276 -1.360947 7.306000 1.689025 13.740014 -0.083490 10.684232 -1.904602 -4.188308 0.000000 -0.000000 0.000000 -7.146559 -2.352690 -23.797049 3.994371 -3.587428 8.559071 -0.086578 1.554010 2.744801 -0.796722 -0.267786 17.306190 11.795641 -11.332940 -27.484053 15.099455 13.977978 -15.283914 0.630198 -25.093954 -22.755615 24.160714 -22.609493 -50.085584 6.859978 -16.389177 -25.787214 -14.093691 -10.937970 -6.782488 14.369040 5.609207 -24.030658 -36.607389 20.711007 -60.059112 -10.365594 8.483093 -43.222026 
0.460996 0.164505 1.013684 64.247380 7.532441 85.830098 11.584370 10.414104 18.696155 -1.340520 1.433896 -3.957808 -3.656593 21.071007 -10.199507 0.000000 -0.000000 0.000000 -1.582391 -1.417703 7.152636 1.689292 13.649786 0.037769 10.627288 -1.889913 -4.326363 0.000000 -0.000000 0.000000 -7.157405 -2.322575 -23.643657 3.969935 -3.602460 8.627518 -0.029752 1.614901 2.774531 -0.230879 2.317456 17.575790 11.101960 -8.708380 -26.232992 14.870229 14.021004 -15.176440 0.469365 -24.922298 -22.743575 24.248193 -22.559463 -49.984394 7.097671 -16.243250 -25.892850 -13.915542 -11.206066 -6.351809 14.121976 5.540266 -24.206964 -36.327627 20.514669 -59.891208 -10.328268 8.532736 -43.026308 
0.459158 0.163982 1.013708 64.461007 7.340981 85.925767 11.623361 10.460179 18.337182 -1.506930 1.092670 -3.615294 -3.816544 20.995712 -10.309789 0.000000 -0.000000 0.000000 -1.637133 -1.509314 6.943542 1.683114 13.565316 0.198131 10.497237 -2.029031 -4.604922 0.000000 -0.000000 0.000000 -7.223690 -2.218387 -23.453856 3.923264 -3.563558 8.574917 0.001834 1.716632 2.627423 0.484536 4.677771 17.771783 10.563433 -6.155798 -24.675552 14.655703 13.938052 -14.757696 0.402501 -24.681203 -22.713798 24.028891 -22.536701 -49.980037 7.512844 -16.028020 -26.181834 -13.805318 -11.444207 -5.658552 13.937257 5.286907 -24.403360 -36.021234 20.390754 -59.745129 -10.430461 8.602592 -42.994025 
0.457552 0.163805 1.013791 65.009527 7.049890 86.039193 11.469037 10.299305 17.841885 -1.595860 0.627054 -3.173585 -3.882578 20.855748 -10.385725 0.000000 -0.000000 0.000000 -1.732741 -1.642423 6.735097 1.587674 13.305868 0.482501 10.274394 -2.301950 -5.060730 0.000000 -0.000000 0.000000 -7.339854 -2.054134 -23.198177 3.827894 -3.523728 8.353908 0.085117 1.798859 2.779813 1.499394 7.090557 18.049321 10.110717 -3.394242 -23.398828 14.404644 13.997853 -14.829756 -0.062872 -24.912514 -22.628883 23.883208 -22.143847 -49.836456 7.865659 -15.593506 -25.932478 -13.727929 -11.798862 -5.345190 13.881133 5.238451 -24.630873 -35.896587 20.188858 -59.653878 -10.430011 8.650455 -42.523300 
